<?xml version="1.0" encoding="UTF-8"?><svg id="Vectorportal.com" xmlns="http://www.w3.org/2000/svg" viewBox="0 0 304.56 442.33"><defs><style>.cls-1,.cls-2{fill:#46509e;}.cls-3{fill:#f7aa47;}.cls-3,.cls-2,.cls-4,.cls-5,.cls-6,.cls-7,.cls-8{fill-rule:evenodd;}.cls-4{fill:#e45d13;}.cls-5{fill:#d0cfe9;}.cls-6{fill:#a4a3d1;}.cls-7{fill:#f28f00;}.cls-8{fill:#fff;}</style></defs><rect class="cls-1" x="215.67" y="160.74" width="20.43" height="281.59"/><polygon class="cls-2" points="278.06 0 160.31 72.03 160.31 207.56 186.81 225.05 304.56 153.03 304.56 17.49 278.06 0"/><path class="cls-2" d="M115.5,266.18L31.67,209.5c-10.63-7.19-11.24,2.77-11.24,12.82v220.02H0V222.32c0-10.67,2.27-19.56,6.44-25.72,2.14-3.16,4.77-5.67,7.86-7.44,3.27-1.87,6.9-2.85,10.85-2.85,5.54,0,11.59,1.99,17.93,6.28l83.83,56.68-11.41,16.92Z"/><path class="cls-5" d="M84.94,272.43c21.64,0,39.28-17.64,39.28-39.28s-17.64-39.28-39.28-39.28-39.28,17.65-39.28,39.28,17.64,39.28,39.28,39.28Z"/><path class="cls-2" d="M147.01,216.12l-22.28-12.87c-41.24-23.81-87.62,49.28-52.46,77.69l21.67,17.51,53.07-82.34Z"/><path class="cls-5" d="M133.55,212.88c21.2,0,32.86,20.07,26.04,44.84-6.81,24.76-29.52,44.84-50.72,44.84s-32.86-20.07-26.04-44.84c6.81-24.77,29.52-44.84,50.72-44.84Z"/><path class="cls-2" d="M117.08,285.31c-3.31-2.61-3.87-7.41-1.26-10.71,2.61-3.3,7.41-3.87,10.71-1.26l33.09,26.2c3.3,2.61,3.87,7.41,1.26,10.71-2.61,3.31-7.41,3.87-10.71,1.26l-33.09-26.19Z"/><path class="cls-4" d="M157.61,252.83c1.72,0,3.52,2.41,4.01,5.38,.5,2.97-.49,5.38-2.21,5.38s-3.52-2.41-4.01-5.38c-.5-2.97,.49-5.38,2.21-5.38h0Zm-22.71-22.34v16.92l28.97,27.21,3-1.64v-16.92l-31.96-25.56Z"/><polygon class="cls-3" points="131.91 232.14 163.87 257.7 169.86 254.4 137.9 228.84 131.91 232.14"/><polygon class="cls-4" points="163.87 274.62 163.87 257.7 169.86 254.4 169.86 271.33 163.87 274.62"/><path class="cls-7" d="M154.62,254.48c1.72,0,3.52,2.41,4.01,5.38,.5,2.97-.49,5.38-2.21,5.38s-3.52-2.41-4.01-5.38c-.5-2.97,.49-5.38,2.21-5.38h0Zm-22.71-22.34v16.92l31.96,25.56v-16.92l-31.96-25.56Z"/><path class="cls-4" d="M129.34,269.32c1.72,0,3.52,2.41,4.01,5.38,.5,2.97-.49,5.38-2.21,5.38s-3.52-2.41-4.01-5.38c-.5-2.97,.49-5.38,2.21-5.38h0Zm-22.71-22.34v16.92l28.97,27.21,3-1.64v-16.92l-31.96-25.56Z"/><polygon class="cls-3" points="103.64 248.63 135.6 274.19 141.6 270.9 109.63 245.34 103.64 248.63"/><polygon class="cls-4" points="135.6 291.11 135.6 274.19 141.6 270.9 141.6 287.82 135.6 291.11"/><path class="cls-7" d="M126.35,270.97c1.72,0,3.52,2.41,4.01,5.38,.5,2.97-.49,5.38-2.21,5.38s-3.52-2.41-4.01-5.38c-.5-2.97,.49-5.38,2.21-5.38h0Zm-22.71-22.34v16.92l31.96,25.56v-16.92l-31.96-25.56Z"/><polygon class="cls-5" points="304.56 17.49 304.56 153.03 186.81 225.05 186.81 89.52 304.56 17.49"/><path class="cls-6" d="M259.79,78.22c21.2,0,32.14,20.08,24.45,44.84-7.69,24.76-31.12,44.84-52.31,44.84s-32.14-20.08-24.45-44.84c7.69-24.76,31.12-44.84,52.31-44.84Z"/><path class="cls-8" d="M259.79,78.22c6.47,0,11.99,1.88,16.31,5.18,4.88,8.18,5.92,19.77,1.92,32.63-7.7,24.77-31.12,44.84-52.32,44.84-6.47,0-11.99-1.88-16.31-5.18-4.88-8.17-5.92-19.77-1.92-32.63,7.69-24.76,31.12-44.84,52.31-44.84Z"/><polygon class="cls-2" points="254.97 114.39 254.97 97.47 260.96 94.18 260.96 111.1 254.97 114.39"/><polygon class="cls-2" points="226.7 130.88 226.7 113.96 232.69 110.67 232.69 127.59 226.7 130.88"/><path class="cls-2" d="M245.61,136.71c3.32,0,5.04,3.15,3.83,7.03-1.21,3.88-4.88,7.02-8.2,7.02s-5.04-3.14-3.83-7.02c1.21-3.88,4.87-7.03,8.2-7.03Z"/></svg>